<svg xmlns="http://www.w3.org/2000/svg" width="19.59" height="15" viewBox="0 0 19.59 15">
  <path id="sign-in-alt" d="M15.917,78.692H12.7a.46.46,0,0,1-.459-.459V76.7a.46.46,0,0,1,.459-.459h3.214a1.223,1.223,0,0,0,1.224-1.224V67.673a1.223,1.223,0,0,0-1.224-1.224H12.7a.46.46,0,0,1-.459-.459v-1.53A.46.46,0,0,1,12.7,64h3.214a3.674,3.674,0,0,1,3.673,3.673v7.346A3.674,3.674,0,0,1,15.917,78.692ZM14.118,71,7.69,64.574a.92.92,0,0,0-1.569.65V68.9H.918A.916.916,0,0,0,0,69.816v3.673a.916.916,0,0,0,.918.918h5.2V78.08a.92.92,0,0,0,1.569.65L14.118,72.3A.926.926,0,0,0,14.118,71Z" transform="translate(0 -64)" fill="#c6c6c6"/>
</svg>
