<svg xmlns="http://www.w3.org/2000/svg" width="28" height="20.123" viewBox="0 0 28 20.123">
  <path id="Path_50" data-name="Path 50" d="M138.926-896.56c-.17.054-.3.166-1.115.972-1.026,1.022-1.1,1.126-1.1,1.531a1.047,1.047,0,0,0,.073.39c.05.108.787.876,2.492,2.585l2.422,2.426-9.929.019-9.929.019-.158.085a1.193,1.193,0,0,0-.513.6,9.9,9.9,0,0,0-.035,1.477c.012,1.265.015,1.315.1,1.47a1.149,1.149,0,0,0,.5.463c.108.046,1.72.054,10.045.054,5.451,0,9.914.012,9.914.027s-1.084,1.115-2.411,2.442a31.989,31.989,0,0,0-2.484,2.584,1.089,1.089,0,0,0,0,.81,14.292,14.292,0,0,0,2.017,2.025,1.056,1.056,0,0,0,.845.019c.12-.058,1.4-1.315,4.7-4.617,4.475-4.482,4.536-4.548,4.66-4.826a.932.932,0,0,0,.116-.579,1.522,1.522,0,0,0-.474-1.015c-.135-.158-2.172-2.206-4.521-4.556-3.02-3.013-4.328-4.289-4.448-4.351A1.042,1.042,0,0,0,138.926-896.56Z" transform="translate(-121.129 896.607)" fill="#c6c6c6"/>
</svg>
