<svg xmlns="http://www.w3.org/2000/svg" width="35.172" height="29.532" viewBox="0 0 35.172 29.532">
  <g id="ICONO-01" transform="translate(-16.311 6.2)">
    <g id="Group_1247" data-name="Group 1247" transform="translate(-3.225 -3.947)">
      <g id="Group_1241" data-name="Group 1241" transform="translate(25.102 8.379)">
        <path id="Path_221" data-name="Path 221" d="M266.847,335.9a4.464,4.464,0,0,0-4.647,4.252h9.294A4.464,4.464,0,0,0,266.847,335.9Z" transform="translate(-260.723 -334.429)" fill="#c6c6c6"/>
        <path id="Path_222" data-name="Path 222" d="M247.47,317.7h-9.3a1.474,1.474,0,0,1-1.472-1.472,5.512,5.512,0,0,1,1.837-4.09,6.411,6.411,0,0,1,8.551,0,5.492,5.492,0,0,1,1.836,4.09A1.448,1.448,0,0,1,247.47,317.7Zm-7.346-2.937h5.4a3.429,3.429,0,0,0-5.4,0Z" transform="translate(-236.7 -310.5)" fill="#c6c6c6"/>
      </g>
      <g id="Group_1242" data-name="Group 1242" transform="translate(27.258 2.129)">
        <circle id="Ellipse_104" data-name="Ellipse 104" cx="2.497" cy="2.497" r="2.497" transform="translate(1.472 1.472)" fill="#c6c6c6"/>
        <path id="Path_223" data-name="Path 223" d="M277.868,210.538a3.969,3.969,0,1,1,3.969-3.969A3.971,3.971,0,0,1,277.868,210.538Zm0-5a1.031,1.031,0,1,0,1.031,1.032A1.033,1.033,0,0,0,277.868,205.537Z" transform="translate(-273.9 -202.6)" fill="#c6c6c6"/>
      </g>
      <g id="Group_1243" data-name="Group 1243" transform="translate(26.58 9.851)">
        <path id="Path_224" data-name="Path 224" d="M266.847,335.9a4.464,4.464,0,0,0-4.647,4.252h9.294A4.464,4.464,0,0,0,266.847,335.9Z" transform="translate(-262.2 -335.9)" fill="#c6c6c6"/>
      </g>
      <g id="Group_1244" data-name="Group 1244" transform="translate(28.727 3.599)">
        <circle id="Ellipse_105" data-name="Ellipse 105" cx="2.497" cy="2.497" r="2.497" fill="#c6c6c6"/>
      </g>
    </g>
    <path id="Path_225" data-name="Path 225" d="M22.8,17.093c-.522,0-1.017.008-1.512,0a17.112,17.112,0,0,1-2.026-.072,3.215,3.215,0,0,1-2.948-2.952c-.008-.65,0-1.3,0-1.946V-3.089a3.264,3.264,0,0,1,3.123-3.079,5.132,5.132,0,0,1,.654-.032H47.716c2.174,0,3.765,1.332,3.765,3.147q.006,8.484,0,16.967c0,1.839-1.564,3.175-3.757,3.183q-5.941.012-11.882,0c-1.077,0-2.158,0-3.235,0a.711.711,0,0,0-.5.172q-3.38,2.836-6.769,5.668a1.611,1.611,0,0,1-1.408.359A1.276,1.276,0,0,1,22.8,22.071c0-1.54,0-3.075,0-4.615C22.8,17.336,22.8,17.229,22.8,17.093Zm2.928,2.018c.1-.076.152-.112.2-.148,1.556-1.3,3.115-2.6,4.663-3.9a1.92,1.92,0,0,1,1.308-.439q7.873.006,15.743,0c.666,0,.913-.207.913-.77v-16.8c0-.6-.239-.806-.957-.806H20.172c-.678,0-.929.211-.929.782V13.858c0,.562.247.766.913.766,1.344,0,2.692,0,4.036,0,.913,0,1.536.526,1.536,1.28v3.207Z" fill="#c6c6c6"/>
    <g id="Group_1246" data-name="Group 1246" transform="translate(47.06 8.261) rotate(180)">
      <path id="Path_227" data-name="Path 227" d="M242.911,464.376h0a.9.9,0,0,1-.7-.326l-4.042-4.823a.915.915,0,1,1,1.4-1.175l3.348,4,3.426-4.006a.914.914,0,0,1,1.387,1.19l-4.13,4.823A.909.909,0,0,1,242.911,464.376Z" transform="translate(-237.956 -457.722)" fill="#c6c6c6"/>
    </g>
  </g>
</svg>
