<svg xmlns="http://www.w3.org/2000/svg" width="25.338" height="22.171" viewBox="0 0 25.338 22.171">
  <path id="sort-amount-up" d="M25.106,49.98l-3.958,3.959a.792.792,0,0,1-1.12,0L16.069,49.98a.792.792,0,0,1,.56-1.352H19V32.791A.792.792,0,0,1,19.8,32h1.584a.792.792,0,0,1,.792.792V48.628h2.375a.792.792,0,0,1,.56,1.352ZM13.461,51H.792A.792.792,0,0,0,0,51.8v1.584a.792.792,0,0,0,.792.792H13.461a.792.792,0,0,0,.792-.792V51.8A.792.792,0,0,0,13.461,51Zm.792-5.543v1.584a.792.792,0,0,1-.792.792h-9.5a.792.792,0,0,1-.792-.792V45.461a.792.792,0,0,1,.792-.792h9.5A.792.792,0,0,1,14.253,45.461Zm0-12.669v1.584a.792.792,0,0,1-.792.792H10.294a.792.792,0,0,1-.792-.792V32.791A.792.792,0,0,1,10.294,32h3.167A.792.792,0,0,1,14.253,32.791Zm0,6.335V40.71a.792.792,0,0,1-.792.792H7.127a.792.792,0,0,1-.792-.792V39.126a.792.792,0,0,1,.792-.792h6.335A.792.792,0,0,1,14.253,39.126Z" transform="translate(0 -32)" fill="#c6c6c6"/>
</svg>
